<svg width="32" height="32" viewBox="0 0 32 32" fill="none" xmlns="http://www.w3.org/2000/svg">
<rect width="32" height="32" rx="16" fill="#F5F5F5"/>
<path d="M22.9549 13.1322C22.9471 12.5443 22.8368 11.9623 22.6292 11.4122C22.4491 10.9482 22.174 10.5268 21.8215 10.1749C21.4691 9.82307 21.047 9.54846 20.5822 9.36867C20.0382 9.16482 19.4636 9.05459 18.8827 9.04269C18.1348 9.00931 17.8977 9 15.9992 9C14.1007 9 13.8574 9 13.1149 9.04269C12.5343 9.05468 11.96 9.1649 11.4163 9.36867C10.9514 9.54833 10.5292 9.8229 10.1767 10.1748C9.82427 10.5267 9.54925 10.9482 9.36928 11.4122C9.16468 11.9549 9.05452 12.5284 9.04354 13.1081C9.01011 13.8555 9 14.0923 9 15.9876C9 17.8829 9 18.1251 9.04354 18.8671C9.0552 19.4476 9.16482 20.0204 9.36928 20.5645C9.54955 21.0284 9.82477 21.4497 10.1774 21.8015C10.53 22.1532 10.9522 22.4277 11.417 22.6073C11.9592 22.8193 12.5337 22.9374 13.1157 22.9565C13.8644 22.9899 14.1015 23 16 23C17.8985 23 18.1418 23 18.8843 22.9565C19.4651 22.9451 20.0398 22.8351 20.5837 22.6313C21.0484 22.4513 21.4704 22.1767 21.8228 21.8248C22.1753 21.473 22.4504 21.0517 22.6307 20.5878C22.8352 20.0445 22.9448 19.4717 22.9565 18.8903C22.9899 18.1437 23 17.907 23 16.0109C22.9984 14.1155 22.9984 13.8749 22.9549 13.1322ZM15.9946 19.5718C14.009 19.5718 12.4005 17.966 12.4005 15.9837C12.4005 14.0014 14.009 12.3956 15.9946 12.3956C16.9478 12.3956 17.8619 12.7736 18.5359 13.4465C19.21 14.1194 19.5886 15.0321 19.5886 15.9837C19.5886 16.9353 19.21 17.848 18.5359 18.5209C17.8619 19.1938 16.9478 19.5718 15.9946 19.5718ZM19.7317 13.0996C19.2675 13.0996 18.8936 12.7255 18.8936 12.2629C18.8936 12.1531 18.9153 12.0443 18.9574 11.9429C18.9995 11.8414 19.0612 11.7492 19.139 11.6715C19.2167 11.5939 19.3091 11.5323 19.4107 11.4903C19.5124 11.4482 19.6213 11.4266 19.7313 11.4266C19.8413 11.4266 19.9502 11.4482 20.0519 11.4903C20.1535 11.5323 20.2458 11.5939 20.3236 11.6715C20.4014 11.7492 20.4631 11.8414 20.5052 11.9429C20.5473 12.0443 20.569 12.1531 20.569 12.2629C20.569 12.7255 20.1942 13.0996 19.7317 13.0996Z" fill="black" fill-opacity="0.4"/>
<path d="M16.002 18.004C17.1077 18.004 18.004 17.1077 18.004 16.002C18.004 14.8963 17.1077 14 16.002 14C14.8963 14 14 14.8963 14 16.002C14 17.1077 14.8963 18.004 16.002 18.004Z" fill="black" fill-opacity="0.4"/>
</svg>
