<svg width="12" height="20" viewBox="0 0 12 20" fill="none" xmlns="http://www.w3.org/2000/svg">
<g clip-path="url(#clip0_31_13)">
<path d="M4.375 12.3805V18.5012L5.23516 19.791C5.4207 20.0691 5.82969 20.0691 6.01523 19.791L6.875 18.5012V12.3805C6.46914 12.4555 6.05234 12.5 5.625 12.5C5.19766 12.5 4.78086 12.4555 4.375 12.3805ZM5.625 0C2.51836 0 0 2.51836 0 5.625C0 8.73164 2.51836 11.25 5.625 11.25C8.73164 11.25 11.25 8.73164 11.25 5.625C11.25 2.51836 8.73164 0 5.625 0ZM5.625 2.96875C4.16016 2.96875 2.96875 4.16016 2.96875 5.625C2.96875 5.88359 2.75859 6.09375 2.5 6.09375C2.24141 6.09375 2.03125 5.88359 2.03125 5.625C2.03125 3.64336 3.64375 2.03125 5.625 2.03125C5.88359 2.03125 6.09375 2.24141 6.09375 2.5C6.09375 2.75859 5.88359 2.96875 5.625 2.96875Z" fill="#D82222"/>
</g>
<defs>
<clipPath id="clip0_31_13">
<rect width="11.25" height="20" fill="white"/>
</clipPath>
</defs>
</svg>
