<svg width="32" height="32" viewBox="0 0 32 32" fill="none" xmlns="http://www.w3.org/2000/svg">
<rect width="32" height="32" rx="16" fill="#F5F5F5"/>
<path d="M15.988 16.2729C13.542 16.2729 11.509 14.3961 11.509 12.1753C11.509 9.87762 13.542 8 15.9889 8C18.519 8 20.468 9.87682 20.468 12.1753C20.4636 13.2657 19.9909 14.3099 19.1536 15.0785C18.3163 15.847 17.183 16.2769 16.0028 16.2737L15.988 16.2729ZM15.988 10.4136C14.9525 10.4136 14.1645 11.2176 14.1645 12.1761C14.1645 13.1329 14.9525 13.8609 15.9889 13.8609C17.0669 13.8609 17.8133 13.1329 17.8133 12.1761C17.8141 11.2168 17.0669 10.4136 15.988 10.4136ZM17.7717 19.6825L20.3026 21.9426C20.8005 22.4394 20.8005 23.1674 20.3026 23.6274C19.7641 24.1242 18.9337 24.1242 18.519 23.6274L15.9889 21.329L13.542 23.6274C13.2935 23.857 12.961 23.9714 12.587 23.9714C12.2969 23.9714 11.9653 23.8562 11.6743 23.6274C11.1765 23.1674 11.1765 22.4394 11.6743 21.9418L14.2459 19.6817C13.3172 19.4277 12.4264 19.0678 11.5938 18.6105C10.9713 18.3041 10.8474 17.5385 11.1791 16.9633C11.5938 16.3889 12.3402 16.2361 13.0043 16.6193C13.9036 17.1264 14.9367 17.3946 15.9902 17.3946C17.0437 17.3946 18.0768 17.1264 18.9761 16.6193C19.6402 16.2361 20.4273 16.3889 20.8005 16.9633C21.1745 17.5385 21.0074 18.3033 20.4264 18.6105C19.6394 19.0705 18.7268 19.4153 17.7726 19.6833L17.7717 19.6825Z" fill="black" fill-opacity="0.4"/>
</svg>
