<svg width="32" height="32" viewBox="0 0 32 32" fill="none" xmlns="http://www.w3.org/2000/svg">
<rect width="32" height="32" rx="16" fill="#F5F5F5"/>
<g clip-path="url(#clip0_61_138)">
<path fill-rule="evenodd" clip-rule="evenodd" d="M23.6333 12.9655C23.744 12.6015 23.6333 12.3335 23.1033 12.3335H21.3533C20.908 12.3335 20.7027 12.5648 20.5913 12.8202C20.5913 12.8202 19.7013 14.9508 18.4407 16.3348C18.0327 16.7362 17.8473 16.8635 17.6247 16.8635C17.5133 16.8635 17.346 16.7362 17.346 16.3715V12.9655C17.346 12.5282 17.2233 12.3335 16.8527 12.3335H14.1007C13.8227 12.3335 13.6553 12.5362 13.6553 12.7288C13.6553 13.1428 14.286 13.2388 14.3507 14.4042V16.9362C14.3507 17.4915 14.2487 17.5922 14.026 17.5922C13.4327 17.5922 11.9893 15.4515 11.1327 13.0022C10.9667 12.5255 10.7987 12.3335 10.3513 12.3335H8.6C8.1 12.3335 8 12.5648 8 12.8202C8 13.2748 8.59333 15.5335 10.7633 18.5208C12.21 20.5608 14.2467 21.6668 16.102 21.6668C17.2147 21.6668 17.352 21.4215 17.352 20.9982V19.4562C17.352 18.9648 17.4573 18.8668 17.81 18.8668C18.07 18.8668 18.5147 18.9948 19.5533 19.9782C20.74 21.1442 20.9353 21.6668 21.6033 21.6668H23.3533C23.8533 21.6668 24.104 21.4215 23.96 20.9362C23.8013 20.4535 23.2347 19.7528 22.4833 18.9215C22.0753 18.4482 21.4633 17.9382 21.2773 17.6828C21.018 17.3555 21.092 17.2095 21.2773 16.9182C21.2773 16.9182 23.4107 13.9675 23.6327 12.9655H23.6333Z" fill="black" fill-opacity="0.4"/>
</g>
<defs>
<clipPath id="clip0_61_138">
<rect width="16" height="16" fill="white" transform="translate(8 9)"/>
</clipPath>
</defs>
</svg>
